<svg width="56" height="56" viewBox="0 0 56 56" fill="none" xmlns="http://www.w3.org/2000/svg">
<rect x="1" y="1" width="54" height="54" rx="27" stroke="#183B56" stroke-width="2"/>
<path d="M26.9375 23.0938C26.625 23.4062 26.6562 23.875 26.9375 24.1875L30.7188 27.75H21.75C21.3125 27.75 21 28.0938 21 28.5V29.5C21 29.9375 21.3125 30.25 21.75 30.25H30.7188L26.9375 33.8438C26.6562 34.1562 26.6562 34.625 26.9375 34.9375L27.625 35.625C27.9375 35.9062 28.4062 35.9062 28.6875 35.625L34.7812 29.5312C35.0625 29.25 35.0625 28.7812 34.7812 28.4688L28.6875 22.4062C28.4062 22.125 27.9375 22.125 27.625 22.4062L26.9375 23.0938Z" fill="#183B56"/>
</svg>
