<svg width="54" height="56" viewBox="0 0 54 56" fill="none" xmlns="http://www.w3.org/2000/svg">
<rect x="1" y="1" width="52" height="54" rx="26" stroke="#183B56" stroke-width="2"/>
<path d="M27.3169 34.9375C27.6294 34.625 27.5981 34.1562 27.3169 33.8438L23.5356 30.25H32.5356C32.9419 30.25 33.2856 29.9375 33.2856 29.5V28.5C33.2856 28.0938 32.9419 27.75 32.5356 27.75H23.5356L27.3169 24.1875C27.5981 23.875 27.6294 23.4062 27.3169 23.0938L26.6294 22.4062C26.3481 22.125 25.8481 22.125 25.5669 22.4062L19.5044 28.5C19.1919 28.7812 19.1919 29.25 19.5044 29.5312L25.5669 35.625C25.8481 35.9062 26.3169 35.9062 26.6294 35.625L27.3169 34.9375Z" fill="#183B56"/>
</svg>
